<svg xmlns="http://www.w3.org/2000/svg" width="528.0" height="528.0" viewBox="0 0 528.0 528.0">
  <path fill="black" d="M 448.0,0.0 C 455.0,0.0 461.0,4.0 463.0,11.0 L 477.0,51.0 L 517.0,65.0 C 524.0,67.0 528.0,73.0 528.0,80.0 C 528.0,87.0 524.0,93.0 517.0,95.0 L 477.0,109.0 L 463.0,149.0 C 461.0,156.0 455.0,160.0 448.0,160.0 C 441.0,160.0 435.0,156.0 433.0,149.0 L 419.0,109.0 L 379.0,95.0 C 372.0,93.0 368.0,87.0 368.0,80.0 C 368.0,73.0 372.0,67.0 379.0,65.0 L 419.0,51.0 L 433.0,11.0 C 435.0,4.0 441.0,0.0 448.0,0.0 M 289.0,113.0 C 302.0,101.0 322.0,101.0 335.0,113.0 L 415.0,193.0 C 427.0,206.0 427.0,226.0 415.0,239.0 L 404.0,250.0 C 412.0,272.0 416.0,295.0 416.0,320.0 C 416.0,435.0 323.0,528.0 208.0,528.0 C 93.0,528.0 0.0,435.0 0.0,320.0 C 0.0,205.0 93.0,112.0 208.0,112.0 C 233.0,112.0 257.0,116.0 279.0,124.0 L 289.0,113.0 M 112.0,320.0 C 112.0,267.0 155.0,224.0 208.0,224.0 C 221.0,224.0 232.0,213.0 232.0,200.0 C 232.0,187.0 221.0,176.0 208.0,176.0 C 129.0,176.0 64.0,241.0 64.0,320.0 C 64.0,333.0 75.0,344.0 88.0,344.0 C 101.0,344.0 112.0,333.0 112.0,320.0" />
</svg>