<svg xmlns="http://www.w3.org/2000/svg" width="448.0" height="448.0" viewBox="0 0 448.0 448.0">
  <path fill="black" d="M 80.0,0.0 C 54.0,0.0 32.0,22.0 32.0,48.0 L 32.0,400.0 C 32.0,427.0 54.0,448.0 80.0,448.0 L 144.0,448.0 C 171.0,448.0 192.0,427.0 192.0,400.0 L 192.0,48.0 C 192.0,22.0 171.0,0.0 144.0,0.0 L 80.0,0.0 M 304.0,0.0 C 278.0,0.0 256.0,22.0 256.0,48.0 L 256.0,400.0 C 256.0,427.0 278.0,448.0 304.0,448.0 L 368.0,448.0 C 395.0,448.0 416.0,427.0 416.0,400.0 L 416.0,48.0 C 416.0,22.0 395.0,0.0 368.0,0.0 L 304.0,0.0" />
</svg>