<svg xmlns="http://www.w3.org/2000/svg" width="448.1312546373629" height="448.1312546373629" viewBox="0 0 448.1312546373629 448.1312546373629">
  <path fill="black" d="M 395.06562731868144,5.0 C 382.06562731868144,-2.0 366.06562731868144,-1.0 354.06562731868144,7.0 L 96.06562731868144,176.0 L 96.06562731868144,32.0 C 96.06562731868144,14.0 82.06562731868144,0.0 64.06562731868144,0.0 C 46.065627318681436,0.0 32.065627318681436,14.0 32.065627318681436,32.0 L 32.065627318681436,416.0 C 32.065627318681436,434.0 46.065627318681436,448.0 64.06562731868144,448.0 C 82.06562731868144,448.0 96.06562731868144,434.0 96.06562731868144,416.0 L 96.06562731868144,272.0 L 354.06562731868144,442.0 C 366.06562731868144,450.0 382.06562731868144,450.0 395.06562731868144,443.0 C 408.06562731868144,436.0 416.06562731868144,423.0 416.06562731868144,408.0 L 416.06562731868144,40.0 C 416.06562731868144,25.0 408.06562731868144,12.0 395.06562731868144,5.0" />
</svg>