<svg xmlns="http://www.w3.org/2000/svg" width="544.0" height="544.0" viewBox="0 0 544.0 544.0">
  <path fill="black" d="M 512.0,381.0 C 505.0,392.0 489.0,390.0 484.0,377.0 C 433.0,229.0 316.0,111.0 167.0,60.0 C 155.0,56.0 152.0,39.0 163.0,32.0 C 200.0,12.0 243.0,0.0 288.0,0.0 C 347.0,0.0 402.0,20.0 445.0,54.0 L 457.0,41.0 C 470.0,29.0 490.0,29.0 503.0,41.0 C 515.0,54.0 515.0,74.0 503.0,87.0 L 490.0,99.0 C 524.0,142.0 544.0,197.0 544.0,256.0 C 544.0,301.0 532.0,344.0 512.0,381.0 M 9.0,489.0 L 305.0,194.0 C 321.0,208.0 336.0,223.0 350.0,239.0 L 55.0,535.0 C 42.0,547.0 22.0,547.0 9.0,535.0 C -3.0,522.0 -3.0,502.0 9.0,489.0" />
</svg>