<svg xmlns="http://www.w3.org/2000/svg" width="543.75" height="543.75" viewBox="0 0 543.75 543.75">
  <path d="M 495.75,256.0 C 495.75,276.0 492.75,296.0 487.75,315.0 C 432.75,203.0 341.75,111.0 228.75,56.0 C 247.75,51.0 267.75,48.0 287.75,48.0 C 402.75,48.0 495.75,141.0 495.75,256.0 M 512.75,378.0 L 513.75,377.0 C 532.75,341.0 543.75,300.0 543.75,256.0 C 543.75,194.0 521.75,137.0 484.75,93.0 L 504.75,73.0 C 513.75,64.0 513.75,48.0 504.75,39.0 C 495.75,30.0 479.75,30.0 470.75,39.0 L 450.75,59.0 C 406.75,22.0 349.75,0.0 287.75,0.0 C 243.75,0.0 202.75,11.0 166.75,30.0 L 165.75,31.0 C 162.75,32.0 160.75,34.0 157.75,35.0 C 151.75,39.0 145.75,43.0 139.75,47.0 C 129.75,54.0 132.75,70.0 144.75,74.0 C 151.75,76.0 157.75,78.0 163.75,81.0 C 165.75,81.0 168.75,82.0 170.75,83.0 L 171.75,84.0 C 229.75,107.0 282.75,140.0 328.75,182.0 L 6.75,503.0 C -2.25,512.0 -2.25,528.0 6.75,537.0 C 15.75,546.0 31.75,546.0 40.75,537.0 L 362.75,215.0 C 403.75,261.0 437.75,314.0 460.75,372.0 L 460.75,373.0 C 461.75,375.0 462.75,378.0 463.75,380.0 C 465.75,386.0 467.75,393.0 469.75,399.0 C 473.75,411.0 489.75,414.0 496.75,404.0 C 500.75,398.0 504.75,392.0 508.75,386.0 C 509.75,383.0 511.75,381.0 512.75,378.0" />
</svg>