<svg xmlns="http://www.w3.org/2000/svg" width="546.75" height="546.75" viewBox="0 0 546.75 546.75">
  <path d="M 441.75,9.0 L 188.75,262.0 L 284.75,358.0 L 537.75,105.0 C 543.75,99.0 546.75,91.0 546.75,83.0 L 546.75,16.0 C 546.75,7.0 539.75,0.0 530.75,0.0 L 464.75,0.0 C 455.75,0.0 447.75,3.0 441.75,9.0 M 32.75,432.0 C 23.75,432.0 15.75,435.0 9.75,441.0 C -3.25,454.0 -3.25,474.0 9.75,487.0 L 60.75,537.0 C 72.75,550.0 92.75,550.0 105.75,537.0 C 111.75,531.0 114.75,523.0 114.75,515.0 L 114.75,480.0 L 162.75,432.0 L 258.75,473.0 C 268.75,477.0 279.75,475.0 287.75,467.0 C 298.75,457.0 298.75,440.0 287.75,429.0 L 117.75,259.0 C 107.75,249.0 90.75,249.0 79.75,259.0 C 71.75,267.0 69.75,279.0 73.75,289.0 L 114.75,384.0 L 66.75,432.0 L 32.75,432.0" />
</svg>