<svg xmlns="http://www.w3.org/2000/svg" width="512.0" height="512.0" viewBox="0 0 512.0 512.0">
  <path d="M 328.0,112.0 L 184.0,112.0 L 147.0,38.0 C 145.0,34.0 144.0,30.0 144.0,26.0 C 144.0,12.0 156.0,0.0 170.0,0.0 L 342.0,0.0 C 356.0,0.0 368.0,12.0 368.0,26.0 C 368.0,30.0 367.0,34.0 365.0,38.0 L 328.0,112.0 M 170.0,160.0 L 342.0,160.0 L 391.0,201.0 C 458.0,256.0 496.0,338.0 496.0,425.0 C 496.0,473.0 457.0,512.0 409.0,512.0 L 103.0,512.0 C 55.0,512.0 16.0,473.0 16.0,425.0 C 16.0,338.0 54.0,256.0 121.0,201.0 L 170.0,160.0 M 260.0,224.0 C 249.0,224.0 240.0,233.0 240.0,244.0 L 240.0,248.0 C 211.0,248.0 188.0,272.0 188.0,301.0 C 188.0,326.0 207.0,348.0 232.0,352.0 L 274.0,359.0 C 280.0,360.0 284.0,366.0 284.0,372.0 C 284.0,379.0 278.0,384.0 272.0,384.0 L 216.0,384.0 C 205.0,384.0 196.0,393.0 196.0,404.0 C 196.0,415.0 205.0,424.0 216.0,424.0 L 240.0,424.0 L 240.0,428.0 C 240.0,439.0 249.0,448.0 260.0,448.0 C 271.0,448.0 280.0,439.0 280.0,428.0 L 280.0,423.0 C 305.0,419.0 324.0,398.0 324.0,372.0 C 324.0,346.0 306.0,324.0 280.0,320.0 L 238.0,313.0 C 232.0,312.0 228.0,307.0 228.0,300.0 C 228.0,294.0 234.0,288.0 241.0,288.0 L 288.0,288.0 C 299.0,288.0 308.0,279.0 308.0,268.0 C 308.0,257.0 299.0,248.0 288.0,248.0 L 280.0,248.0 L 280.0,244.0 C 280.0,233.0 271.0,224.0 260.0,224.0" />
</svg>