<svg xmlns="http://www.w3.org/2000/svg" width="512.0" height="512.0" viewBox="0 0 512.0 512.0">
  <path fill="black" d="M 379.0,57.0 L 333.0,138.0 C 417.0,215.0 496.0,292.0 496.0,417.0 C 496.0,469.0 453.0,512.0 401.0,512.0 L 111.0,512.0 C 59.0,512.0 16.0,469.0 16.0,417.0 C 16.0,292.0 96.0,215.0 179.0,138.0 L 133.0,57.0 C 130.0,51.0 128.0,45.0 128.0,38.0 C 128.0,17.0 145.0,0.0 166.0,0.0 L 346.0,0.0 C 367.0,0.0 384.0,17.0 384.0,38.0 C 384.0,45.0 382.0,51.0 379.0,57.0 M 227.0,160.0 L 226.0,161.0 C 134.0,244.0 64.0,309.0 64.0,417.0 C 64.0,443.0 85.0,464.0 111.0,464.0 L 401.0,464.0 C 427.0,464.0 448.0,443.0 448.0,417.0 C 448.0,309.0 378.0,244.0 286.0,161.0 L 285.0,160.0 L 227.0,160.0 M 220.0,112.0 L 292.0,112.0 L 329.0,48.0 L 183.0,48.0 L 220.0,112.0 M 260.0,208.0 C 271.0,208.0 280.0,217.0 280.0,228.0 L 280.0,232.0 L 288.0,232.0 C 299.0,232.0 308.0,241.0 308.0,252.0 C 308.0,263.0 299.0,272.0 288.0,272.0 L 241.0,272.0 C 234.0,272.0 228.0,278.0 228.0,285.0 C 228.0,291.0 232.0,296.0 238.0,297.0 L 280.0,304.0 C 305.0,308.0 324.0,330.0 324.0,356.0 C 324.0,382.0 305.0,403.0 280.0,407.0 L 280.0,412.0 C 280.0,423.0 271.0,432.0 260.0,432.0 C 249.0,432.0 240.0,423.0 240.0,412.0 L 240.0,408.0 L 216.0,408.0 C 205.0,408.0 196.0,399.0 196.0,388.0 C 196.0,377.0 205.0,368.0 216.0,368.0 L 272.0,368.0 C 278.0,368.0 284.0,363.0 284.0,356.0 C 284.0,350.0 280.0,344.0 274.0,343.0 L 232.0,336.0 C 207.0,332.0 188.0,310.0 188.0,285.0 C 188.0,256.0 211.0,232.0 240.0,232.0 L 240.0,228.0 C 240.0,217.0 249.0,208.0 260.0,208.0" />
</svg>