<?xml version="1.0" encoding="UTF-8" standalone="no"?>
<svg
   width="512.0"
   height="512.0"
   viewBox="0 0 512.0 512.0"
   version="1.1"
   id="svg1"
   sodipodi:docname="fixed_glyph-U+F81C-2.svg"
   xml:space="preserve"
   inkscape:version="1.4.2 (ebf0e940, 2025-05-08)"
   xmlns:inkscape="http://www.inkscape.org/namespaces/inkscape"
   xmlns:sodipodi="http://sodipodi.sourceforge.net/DTD/sodipodi-0.dtd"
   xmlns="http://www.w3.org/2000/svg"
   xmlns:svg="http://www.w3.org/2000/svg"><defs
     id="defs1" /><sodipodi:namedview
     id="namedview1"
     inkscape:showpageshadow="2"
     inkscape:pageopacity="0.0"
     inkscape:pagecheckerboard="0"
     inkscape:deskcolor="#d1d1d1"
     inkscape:zoom="0.69353216"
     inkscape:cx="3.6047355"
     inkscape:cy="204.02803"
     inkscape:window-width="1496"
     inkscape:window-height="1022"
     inkscape:window-x="185"
     inkscape:window-y="0"
     inkscape:window-maximized="0"
     inkscape:current-layer="svg1" /><path
     id="path1"
     d="M 170 0 C 156 0 144 12 144 26 C 144 30 145 34 147 38 L 184 112 L 328 112 L 365 38 C 367 34 368 30 368 26 C 368 12 356 0 342 0 L 170 0 z M 170 160 L 121 201 C 54 256 16 338 16 425 C 16 473 55 512 104 512 L 409 512 C 457 512 496 473 496 425 C 496 338 458 256 391 201 L 342 160 L 170 160 z M 336.90625 223.48242 C 340.05541 223.48242 342.75453 225.28246 343.6543 228.43164 L 349.95312 246.42773 L 367.94727 252.72461 C 371.09645 253.62438 372.89648 256.32545 372.89648 259.47461 C 372.89648 262.62379 371.09645 265.32289 367.94727 266.22266 L 349.95312 272.51953 L 343.6543 290.51562 C 342.75453 293.6648 340.05541 295.46484 336.90625 295.46484 C 333.75707 295.46484 331.05797 293.66479 330.1582 290.51562 L 323.85938 272.51953 L 305.86328 266.22266 C 302.71412 265.32289 300.91602 262.62379 300.91602 259.47461 C 300.91602 256.32545 302.71412 253.62438 305.86328 252.72461 L 323.85938 246.42773 L 330.1582 228.43164 C 331.05797 225.28246 333.75707 223.48242 336.90625 223.48242 z M 272.51562 265.82812 C 276.95821 265.99683 281.34464 267.7958 284.71875 271.16992 L 325.20898 311.66016 C 331.95722 318.40839 331.95722 330.10529 325.20898 336.85352 L 319.36133 342.70117 C 321.61074 350.79905 322.50977 358.89756 322.50977 367.44531 C 322.50977 419.18172 280.67002 461.02148 228.93359 461.02148 C 177.19718 461.02148 135.35937 419.18172 135.35938 367.44531 C 135.35938 315.70889 177.19718 273.86914 228.93359 273.86914 C 237.03147 273.86914 245.13001 274.77011 252.32812 277.01953 L 259.97656 270.27148 C 263.57562 267.12231 268.07304 265.65942 272.51562 265.82812 z M 271.67383 288.7168 L 262.22461 296.81445 C 259.52531 299.51374 255.47797 300.41214 251.87891 299.0625 C 244.6808 296.81308 237.03147 295.46484 228.93359 295.46484 C 189.34399 295.46484 156.95312 327.8557 156.95312 367.44531 C 156.95312 407.03491 189.34399 439.42578 228.93359 439.42578 C 268.5232 439.42578 300.91602 407.03491 300.91602 367.44531 C 300.91602 358.89756 299.56648 350.79967 296.86719 343.60156 C 295.51755 339.55262 296.41724 335.05476 299.56641 332.35547 L 307.21289 324.25586 L 271.67383 288.7168 z M 228.93359 317.05859 C 234.78206 317.05859 239.73047 322.007 239.73047 327.85547 C 239.73047 333.70394 234.78206 338.65234 228.93359 338.65234 C 213.18772 338.65234 200.14258 351.69944 200.14258 367.44531 C 200.14258 373.29376 195.19222 378.24219 189.34375 378.24219 C 183.49528 378.24219 178.54688 373.29376 178.54688 367.44531 C 178.54688 339.55263 201.04091 317.05859 228.93359 317.05859 z " /></svg>
