<svg
   width="512.0"
   height="512.0"
   viewBox="0 0 512.0 512.0"
   version="1.1"
   id="svg1"
   sodipodi:docname="fixed_glyph-U+F81C.svg"
   xml:space="preserve"
   inkscape:version="1.4.2 (ebf0e940, 2025-05-08)"
   xmlns:inkscape="http://www.inkscape.org/namespaces/inkscape"
   xmlns:sodipodi="http://sodipodi.sourceforge.net/DTD/sodipodi-0.dtd"
   xmlns="http://www.w3.org/2000/svg"
   xmlns:svg="http://www.w3.org/2000/svg"><defs
     id="defs1" /><sodipodi:namedview
     id="namedview1"
     pagecolor="#ffffff"
     bordercolor="#000000"
     borderopacity="0.25"
     inkscape:showpageshadow="2"
     inkscape:pageopacity="0.0"
     inkscape:pagecheckerboard="0"
     inkscape:deskcolor="#d1d1d1"
     inkscape:zoom="1.0360093"
     inkscape:cx="347.96984"
     inkscape:cy="283.29861"
     inkscape:window-width="1512"
     inkscape:window-height="1022"
     inkscape:window-x="168"
     inkscape:window-y="0"
     inkscape:window-maximized="0"
     inkscape:current-layer="svg1" /><path
     d="M 333.0,138.0 L 379.0,57.0 C 382.0,51.0 384.0,45.0 384.0,38.0 C 384.0,17.0 367.0,0.0 346.0,0.0 L 166.0,0.0 C 145.0,0.0 128.0,17.0 128.0,38.0 C 128.0,45.0 130.0,51.0 133.0,57.0 L 179.0,138.0 C 96.0,215.0 16.0,292.0 16.0,417.0 C 16.0,469.0 59.0,512.0 111.0,512.0 L 401.0,512.0 C 453.0,512.0 496.0,469.0 496.0,417.0 C 496.0,292.0 417.0,215.0 333.0,138.0 M 285.0,160.0 L 286.0,161.0 C 378.0,245.0 448.0,309.0 448.0,417.0 C 448.0,443.0 427.0,464.0 401.0,464.0 L 111.0,464.0 C 85.0,464.0 64.0,443.0 64.0,417.0 C 64.0,309.0 134.0,245.0 226.0,161.0 L 227.0,160.0 L 285.0,160.0 M 292.0,112.0 L 220.0,112.0 L 183.0,48.0 L 329.0,48.0 L 292.0,112.0"
     id="path1" /><path
     d="m 316.34147,236.17951 c 2.55952,0 4.7534,1.46258 5.48469,4.0221 l 5.11904,14.62583 14.62583,5.11904 c 2.55952,0.73129 4.0221,2.92517 4.0221,5.48469 0,2.55952 -1.46258,4.75339 -4.0221,5.48468 l -14.62583,5.11904 -5.11904,14.62583 c -0.73129,2.55952 -2.92517,4.0221 -5.48469,4.0221 -2.55952,0 -4.75339,-1.46258 -5.48468,-4.0221 l -5.11904,-14.62583 -14.62583,-5.11904 c -2.55952,-0.73129 -4.0221,-2.92516 -4.0221,-5.48468 0,-2.55952 1.46258,-4.7534 4.0221,-5.48469 l 14.62583,-5.11904 5.11904,-14.62583 c 0.73129,-2.55952 2.92516,-4.0221 5.48468,-4.0221 m -58.13766,41.31796 c 4.75339,-4.38774 12.06631,-4.38774 16.8197,0 l 29.25166,29.25166 c 4.38774,4.75339 4.38774,12.06631 0,16.8197 l -4.02211,4.02211 c 2.92517,8.0442 4.38775,16.45405 4.38775,25.59519 0,42.04926 -34.00505,76.05431 -76.0543,76.05431 -42.04926,0 -76.05431,-34.00505 -76.05431,-76.05431 0,-42.04925 34.00505,-76.0543 76.05431,-76.0543 9.14114,0 17.91664,1.46258 25.96084,4.38775 l 3.65646,-4.02211 m -64.71929,75.68866 c 0,-19.37922 15.72276,-35.10198 35.10199,-35.10198 4.75339,0 8.77549,-4.02211 8.77549,-8.7755 0,-4.75339 -4.0221,-8.7755 -8.77549,-8.7755 -28.88601,0 -52.65299,23.76697 -52.65299,52.65298 0,4.7534 4.02211,8.7755 8.7755,8.7755 4.7534,0 8.7755,-4.0221 8.7755,-8.7755"
     id="path1-2"
     style="stroke-width:0.365646" /></svg>
