<svg xmlns="http://www.w3.org/2000/svg" width="512.0" height="512.0" viewBox="0 0 512.0 512.0">
  <path d="M 492.0,478.0 C 480.0,483.0 467.0,480.0 457.0,471.0 L 288.0,301.0 L 288.0,448.0 C 288.0,461.0 280.0,473.0 268.0,478.0 C 256.0,483.0 243.0,480.0 233.0,471.0 L 64.0,301.0 L 64.0,448.0 C 64.0,466.0 50.0,480.0 32.0,480.0 C 14.0,480.0 0.0,466.0 0.0,448.0 L 0.0,64.00000000000003 C 0.0,46.00000000000002 14.0,32.00000000000002 32.0,32.00000000000002 C 50.0,32.00000000000002 64.0,46.00000000000002 64.0,64.00000000000003 L 64.0,211.00000000000003 L 233.0,41.00000000000002 C 243.0,32.00000000000002 256.0,30.00000000000002 268.0,35.00000000000002 C 280.0,40.00000000000002 288.0,51.00000000000002 288.0,64.00000000000003 L 288.0,211.00000000000003 L 457.0,41.00000000000002 C 467.0,32.00000000000002 480.0,29.00000000000002 492.0,34.00000000000002 C 504.0,39.00000000000002 512.0,51.00000000000002 512.0,64.00000000000003 L 512.0,448.0 C 512.0,461.0 504.0,473.0 492.0,478.0" />
</svg>