<svg xmlns="http://www.w3.org/2000/svg" width="512.0" height="512.0" viewBox="0 0 512.0 512.0">
  <path fill="black" d="M 20.0,478.0 C 32.0,483.0 46.0,480.0 55.0,471.0 L 224.0,301.0 L 224.0,448.0 C 224.0,461.0 232.0,473.0 244.0,478.0 C 256.0,483.0 270.0,480.0 279.0,471.0 L 448.0,301.0 L 448.0,448.0 C 448.0,466.0 462.0,480.0 480.0,480.0 C 498.0,480.0 512.0,466.0 512.0,448.0 L 512.0,64.00000000000003 C 512.0,46.00000000000002 498.0,32.00000000000002 480.0,32.00000000000002 C 462.0,32.00000000000002 448.0,46.00000000000002 448.0,64.00000000000003 L 448.0,211.00000000000003 L 279.0,41.00000000000002 C 269.0,32.00000000000002 256.0,29.00000000000002 244.0,34.00000000000002 C 232.0,39.00000000000002 224.0,51.00000000000002 224.0,64.00000000000003 L 224.0,211.00000000000003 L 55.0,41.00000000000002 C 45.0,32.00000000000002 32.0,30.00000000000002 20.0,35.00000000000002 C 8.0,40.00000000000002 0.0,51.00000000000002 0.0,64.00000000000003 L 0.0,448.0 C 0.0,461.0 8.0,473.0 20.0,478.0" />
</svg>