<svg xmlns="http://www.w3.org/2000/svg" width="512.0" height="512.0" viewBox="0 0 512.0 512.0">
  <path d="M 308.0,43.00000000000002 C 296.0,32.00000000000002 279.0,29.00000000000002 264.0,35.00000000000002 C 250.0,42.00000000000002 240.0,56.00000000000002 240.0,72.00000000000003 L 240.0,208.00000000000003 L 68.0,43.00000000000002 C 56.0,32.00000000000002 39.0,29.00000000000002 24.0,35.00000000000002 C 10.0,42.00000000000002 0.0,56.00000000000002 0.0,72.00000000000003 L 0.0,440.0 C 0.0,456.0 10.0,471.0 24.0,477.0 C 39.0,483.0 56.0,480.0 68.0,469.0 L 240.0,304.0 L 240.0,440.0 C 240.0,456.0 250.0,471.0 264.0,477.0 C 279.0,483.0 296.0,480.0 308.0,469.0 L 500.0,285.0 C 508.0,277.0 512.0,267.0 512.0,256.0 C 512.0,245.00000000000003 508.0,235.00000000000003 500.0,227.00000000000003 L 308.0,43.00000000000002" />
</svg>