<svg xmlns="http://www.w3.org/2000/svg" width="509.0" height="509.0" viewBox="0 0 509.0 509.0">
  <path fill="black" d="M 254.5,49.0 L 71.5,127.0 C 65.5,130.0 62.5,135.0 62.5,140.0 C 63.5,231.0 101.5,389.0 249.5,460.0 C 252.5,462.0 256.5,462.0 260.5,460.0 C 408.5,389.0 446.5,231.0 446.5,140.0 C 446.5,135.0 443.5,130.0 437.5,127.0 L 254.5,49.0 M 267.5,3.0 L 456.5,83.0 C 478.5,92.0 494.5,114.0 494.5,140.0 C 494.5,239.0 453.5,421.0 281.5,503.0 C 264.5,511.0 244.5,511.0 228.5,503.0 C 55.5,421.0 15.5,239.0 14.5,140.0 C 14.5,114.0 30.5,92.0 52.5,83.0 L 241.5,3.0 C 245.5,1.0 249.5,0.0 254.5,0.0 C 259.5,0.0 263.5,1.0 267.5,3.0" />
</svg>