<svg xmlns="http://www.w3.org/2000/svg" width="546.75" height="546.75" viewBox="0 0 546.75 546.75">
  <path fill="black" d="M 258.75,400.0 L 287.75,429.0 C 298.75,439.0 298.75,457.0 287.75,467.0 C 279.75,475.0 268.75,477.0 257.75,473.0 L 162.75,432.0 L 114.75,480.0 L 114.75,515.0 C 114.75,523.0 111.75,531.0 105.75,537.0 C 92.75,550.0 72.75,550.0 60.75,537.0 L 9.75,487.0 C -3.25,474.0 -3.25,454.0 9.75,441.0 C 15.75,435.0 23.75,432.0 32.75,432.0 L 66.75,432.0 L 114.75,384.0 L 73.75,289.0 C 69.75,279.0 71.75,267.0 79.75,259.0 C 90.75,249.0 107.75,249.0 117.75,259.0 L 146.75,288.0 L 425.75,9.0 C 431.75,3.0 439.75,0.0 448.75,0.0 L 530.75,0.0 C 539.75,0.0 546.75,7.0 546.75,16.0 L 546.75,99.0 C 546.75,107.0 543.75,115.0 537.75,121.0 L 258.75,400.0 M 224.75,366.0 L 498.75,92.0 L 498.75,48.0 L 454.75,48.0 L 180.75,322.0 L 224.75,366.0" />
</svg>