<svg xmlns="http://www.w3.org/2000/svg" width="583.75" height="583.75" viewBox="0 0 583.75 583.75">
  <path d="M 214.75,62.0 L 238.75,48.0 C 260.75,35.0 284.75,28.0 310.75,28.0 C 346.75,28.0 382.75,43.0 408.75,69.0 L 472.75,133.0 C 487.75,148.0 495.75,168.0 495.75,189.0 L 495.75,220.0 L 515.75,240.0 L 515.75,240.0 C 530.75,224.0 556.75,224.0 571.75,240.0 C 587.75,255.0 587.75,281.0 571.75,296.0 L 507.75,360.0 C 492.75,376.0 466.75,376.0 451.75,360.0 C 435.75,345.0 435.75,320.0 451.75,304.0 L 431.75,284.0 L 400.75,284.0 C 379.75,284.0 359.75,276.0 344.75,261.0 L 294.75,212.0 C 279.75,197.0 271.75,176.0 271.75,155.0 L 271.75,142.0 C 271.75,131.0 265.75,121.0 256.75,115.0 L 214.75,90.0 C 204.75,84.0 204.75,69.0 214.75,62.0 M 18.75,447.0 L 240.75,225.0 L 330.75,315.0 L 108.75,537.0 C 83.75,562.0 43.75,562.0 18.75,537.0 C -6.25,512.0 -6.25,472.0 18.75,447.0" />
</svg>