<svg xmlns="http://www.w3.org/2000/svg" width="581.0" height="581.0" viewBox="0 0 581.0 581.0">
  <path d="M 434.25,74.52417394802627 C 375.25,21.524173948026274 291.25,8.524173948026274 219.25,40.524173948026274 L 179.25,58.524173948026274 C 172.25,62.524173948026274 166.25,69.52417394802627 165.25,77.52417394802627 C 164.25,85.52417394802627 167.25,93.52417394802627 174.25,99.52417394802627 L 253.25,163.52417394802626 L 253.25,206.52417394802626 L 20.25,439.52417394802626 C -6.75,466.52417394802626 -6.75,510.52417394802626 20.25,537.5241739480263 C 47.25,564.5241739480263 91.25,564.5241739480263 118.25,537.5241739480263 L 351.25,304.52417394802626 L 411.25,304.52417394802626 L 443.25,336.52417394802626 C 435.25,345.52417394802626 435.25,360.52417394802626 444.25,369.52417394802626 C 453.25,378.52417394802626 469.25,378.52417394802626 478.25,369.52417394802626 L 574.25,273.52417394802626 C 583.25,264.52417394802626 583.25,248.52417394802626 574.25,239.52417394802626 C 565.25,230.52417394802626 550.25,230.52417394802626 541.25,238.52417394802626 L 509.25,206.52417394802626 L 509.25,174.52417394802626 C 509.25,153.52417394802626 500.25,134.52417394802626 485.25,120.52417394802627 L 434.25,74.52417394802627 M 507.25,272.52417394802626 L 477.25,302.52417394802626 L 438.25,263.52417394802626 C 433.25,259.52417394802626 427.25,256.52417394802626 421.25,256.52417394802626 L 367.25,256.52417394802626 L 301.25,190.52417394802626 L 301.25,152.52417394802626 C 301.25,145.52417394802626 298.25,138.52417394802626 292.25,134.52417394802626 L 234.25,86.52417394802627 L 239.25,84.52417394802627 C 293.25,60.524173948026274 357.25,70.52417394802627 402.25,110.52417394802627 L 453.25,156.52417394802626 C 458.25,160.52417394802626 461.25,167.52417394802626 461.25,174.52417394802626 L 461.25,216.52417394802626 C 461.25,222.52417394802626 464.25,229.52417394802626 468.25,233.52417394802626 L 507.25,272.52417394802626 M 315.25,272.52417394802626 L 84.25,503.52417394802626 C 76.25,511.52417394802626 62.25,511.52417394802626 54.25,503.52417394802626 C 46.25,495.52417394802626 46.25,481.52417394802626 54.25,473.52417394802626 L 285.25,242.52417394802626 L 315.25,272.52417394802626" />
</svg>