<svg xmlns="http://www.w3.org/2000/svg" width="512.0" height="512.0" viewBox="0 0 512.0 512.0">
  <path d="M 204.0,43.00000000000002 C 216.0,32.00000000000002 233.0,29.00000000000002 248.0,35.00000000000002 C 262.0,42.00000000000002 272.0,56.00000000000002 272.0,72.00000000000003 L 272.0,208.00000000000003 L 444.0,43.00000000000002 C 456.0,32.00000000000002 473.0,29.00000000000002 488.0,35.00000000000002 C 502.0,42.00000000000002 512.0,56.00000000000002 512.0,72.00000000000003 L 512.0,440.0 C 512.0,456.0 502.0,471.0 488.0,477.0 C 473.0,483.0 456.0,480.0 444.0,469.0 L 272.0,304.0 L 272.0,440.0 C 272.0,456.0 262.0,471.0 248.0,477.0 C 233.0,483.0 216.0,480.0 204.0,469.0 L 12.0,285.0 C 5.0,277.0 0.0,267.0 0.0,256.0 C 0.0,245.00000000000003 5.0,235.00000000000003 12.0,227.00000000000003 L 204.0,43.00000000000002" />
</svg>