<svg xmlns="http://www.w3.org/2000/svg" width="448.1312546373629" height="448.1312546373629" viewBox="0 0 448.1312546373629 448.1312546373629">
  <path d="M 53.065627318681436,5.0 C 66.06562731868144,-2.0 82.06562731868144,-1.0 94.06562731868144,7.0 L 352.06562731868144,176.0 L 352.06562731868144,32.0 C 352.06562731868144,14.0 366.06562731868144,0.0 384.06562731868144,0.0 C 402.06562731868144,0.0 416.06562731868144,14.0 416.06562731868144,32.0 L 416.06562731868144,416.0 C 416.06562731868144,434.0 402.06562731868144,448.0 384.06562731868144,448.0 C 366.06562731868144,448.0 352.06562731868144,434.0 352.06562731868144,416.0 L 352.06562731868144,272.0 L 94.06562731868144,442.0 C 82.06562731868144,450.0 66.06562731868144,450.0 53.065627318681436,443.0 C 40.065627318681436,436.0 32.065627318681436,423.0 32.065627318681436,408.0 L 32.065627318681436,40.0 C 32.065627318681436,25.0 40.065627318681436,12.0 53.065627318681436,5.0" />
</svg>