<svg xmlns="http://www.w3.org/2000/svg" width="512.0" height="512.0" viewBox="0 0 512.0 512.0">
  <path fill="black" d="M 136.0,16.0 C 123.0,16.0 112.0,27.0 112.0,40.0 L 112.0,208.0 L 64.0,208.0 L 64.0,168.0 C 64.0,155.0 53.0,144.0 40.0,144.0 L 24.0,144.0 C 11.0,144.0 0.0,155.0 0.0,168.0 L 0.0,248.0 C 0.0,249.0 0.0,250.0 0.0,251.0 C 0.0,253.0 0.0,254.0 0.0,256.0 L 0.0,432.0 C 0.0,467.0 29.0,496.0 64.0,496.0 L 448.0,496.0 C 483.0,496.0 512.0,467.0 512.0,432.0 L 512.0,256.0 C 512.0,254.0 512.0,253.0 512.0,251.0 C 512.0,250.0 512.0,249.0 512.0,248.0 L 512.0,168.0 C 512.0,155.0 501.0,144.0 488.0,144.0 L 472.0,144.0 C 459.0,144.0 448.0,155.0 448.0,168.0 L 448.0,208.0 L 400.0,208.0 L 400.0,40.0 C 400.0,27.0 389.0,16.0 376.0,16.0 L 360.0,16.0 C 347.0,16.0 336.0,27.0 336.0,40.0 L 336.0,80.0 L 288.0,80.0 L 288.0,40.0 C 288.0,27.0 277.0,16.0 264.0,16.0 L 248.0,16.0 C 235.0,16.0 224.0,27.0 224.0,40.0 L 224.0,80.0 L 176.0,80.0 L 176.0,40.0 C 176.0,27.0 165.0,16.0 152.0,16.0 L 136.0,16.0 M 192.0,368.0 C 192.0,333.0 221.0,304.0 256.0,304.0 C 291.0,304.0 320.0,333.0 320.0,368.0 L 320.0,448.0 L 192.0,448.0 L 192.0,368.0" />
</svg>