<svg xmlns="http://www.w3.org/2000/svg" width="512.0" height="512.0" viewBox="0 0 512.0 512.0">
  <path d="M 160.0,40.0 C 160.0,27.0 149.0,16.0 136.0,16.0 C 123.0,16.0 112.0,27.0 112.0,40.0 L 112.0,192.0 L 48.0,192.0 L 48.0,168.0 C 48.0,155.0 37.0,144.0 24.0,144.0 C 11.0,144.0 0.0,155.0 0.0,168.0 L 0.0,432.0 C 0.0,467.0 29.0,496.0 64.0,496.0 L 448.0,496.0 C 483.0,496.0 512.0,467.0 512.0,432.0 L 512.0,168.0 C 512.0,155.0 501.0,144.0 488.0,144.0 C 475.0,144.0 464.0,155.0 464.0,168.0 L 464.0,192.0 L 400.0,192.0 L 400.0,40.0 C 400.0,27.0 389.0,16.0 376.0,16.0 C 363.0,16.0 352.0,27.0 352.0,40.0 L 352.0,80.0 L 280.0,80.0 L 280.0,40.0 C 280.0,27.0 269.0,16.0 256.0,16.0 C 243.0,16.0 232.0,27.0 232.0,40.0 L 232.0,80.0 L 160.0,80.0 L 160.0,40.0 M 160.0,128.0 L 352.0,128.0 L 352.0,216.0 C 352.0,229.0 363.0,240.0 376.0,240.0 L 464.0,240.0 L 464.0,432.0 C 464.0,441.0 457.0,448.0 448.0,448.0 L 320.0,448.0 L 320.0,368.0 C 320.0,333.0 291.0,304.0 256.0,304.0 C 221.0,304.0 192.0,333.0 192.0,368.0 L 192.0,448.0 L 64.0,448.0 C 55.0,448.0 48.0,441.0 48.0,432.0 L 48.0,240.0 L 136.0,240.0 C 149.0,240.0 160.0,229.0 160.0,216.0 L 160.0,128.0" />
</svg>