<svg xmlns="http://www.w3.org/2000/svg" width="511.90794993399976" height="511.90794993399976" viewBox="0 0 511.90794993399976 511.90794993399976">
  <path fill="black" d="M 169.13125463736287,75.95397496699988 L 256.1312546373629,168.95397496699988 L 344.1312546373629,75.95397496699988 L 169.13125463736287,75.95397496699988 M 384.1312546373629,102.95397496699988 L 312.1312546373629,179.95397496699988 L 441.1312546373629,179.95397496699988 L 384.1312546373629,102.95397496699988 M 434.1312546373629,227.95397496699988 L 78.13125463736287,227.95397496699988 L 256.1312546373629,423.9539749669999 L 434.1312546373629,227.95397496699988 M 72.13125463736287,179.95397496699988 L 201.13125463736287,179.95397496699988 L 128.13125463736287,102.95397496699988 L 72.13125463736287,179.95397496699988 M 506.1312546373629,219.95397496699988 L 274.1312546373629,475.9539749669999 C 269.1312546373629,480.9539749669999 263.1312546373629,483.9539749669999 256.1312546373629,483.9539749669999 C 249.13125463736287,483.9539749669999 243.13125463736287,480.9539749669999 238.13125463736287,475.9539749669999 L 6.13125463736287,219.95397496699988 C -1.8687453626371298,211.95397496699988 -1.8687453626371298,198.95397496699988 5.13125463736287,189.95397496699988 L 117.13125463736287,37.95397496699988 C 121.13125463736287,31.95397496699988 128.13125463736287,27.95397496699988 136.13125463736287,27.95397496699988 L 376.1312546373629,27.95397496699988 C 384.1312546373629,27.95397496699988 391.1312546373629,31.95397496699988 395.1312546373629,37.95397496699988 L 507.1312546373629,189.95397496699988 C 514.1312546373629,198.95397496699988 513.1312546373629,211.95397496699988 506.1312546373629,219.95397496699988" />
</svg>