<svg xmlns="http://www.w3.org/2000/svg" width="512.0" height="512.0" viewBox="0 0 512.0 512.0">
  <path fill="black" d="M 144.0,80.0 L 368.0,80.0 L 368.0,248.0 L 288.0,248.0 L 288.0,224.0 C 288.0,206.0 274.0,192.0 256.0,192.0 C 238.0,192.0 224.0,206.0 224.0,224.0 L 224.0,248.0 L 144.0,248.0 L 144.0,80.0 M 416.0,87.0 C 444.0,99.0 464.0,127.0 464.0,160.0 L 464.0,248.0 L 416.0,248.0 L 416.0,87.0 M 464.0,296.0 L 464.0,416.0 C 464.0,425.0 457.0,432.0 448.0,432.0 L 416.0,432.0 L 416.0,296.0 L 464.0,296.0 M 368.0,432.0 L 144.0,432.0 L 144.0,296.0 L 224.0,296.0 L 224.0,320.0 C 224.0,338.0 238.0,352.0 256.0,352.0 C 274.0,352.0 288.0,338.0 288.0,320.0 L 288.0,296.0 L 368.0,296.0 L 368.0,432.0 M 96.0,432.0 L 64.0,432.0 C 55.0,432.0 48.0,425.0 48.0,416.0 L 48.0,296.0 L 96.0,296.0 L 96.0,432.0 M 48.0,248.0 L 48.0,160.0 C 48.0,127.0 68.0,99.0 96.0,87.0 L 96.0,248.0 L 48.0,248.0 M 128.0,32.0 C 57.0,32.0 0.0,89.0 0.0,160.0 L 0.0,416.0 C 0.0,451.0 29.0,480.0 64.0,480.0 L 448.0,480.0 C 483.0,480.0 512.0,451.0 512.0,416.0 L 512.0,160.0 C 512.0,89.0 455.0,32.0 384.0,32.0 L 128.0,32.0" />
</svg>